<svg width="14" height="14" viewBox="0 0 14 14" fill="none" xmlns="http://www.w3.org/2000/svg">
<path fill-rule="evenodd" clip-rule="evenodd" d="M7.75 1.16675C7.75 0.752534 7.41421 0.416748 7 0.416748C6.58579 0.416748 6.25 0.752534 6.25 1.16675V6.25H1.16666C0.752443 6.25 0.416656 6.58579 0.416656 7C0.416656 7.41421 0.752443 7.75 1.16666 7.75H6.25V12.8334C6.25 13.2476 6.58579 13.5834 7 13.5834C7.41421 13.5834 7.75 13.2476 7.75 12.8334V7.75H12.8333C13.2475 7.75 13.5833 7.41421 13.5833 7C13.5833 6.58579 13.2475 6.25 12.8333 6.25H7.75V1.16675Z" fill="white"/>
</svg>
