<svg width="25" height="24" viewBox="0 0 25 24" fill="none" xmlns="http://www.w3.org/2000/svg">
<path fill-rule="evenodd" clip-rule="evenodd" d="M16.5718 11.8418C16.8575 11.762 17.1633 11.8581 17.352 12.0869L19.3026 14.4512C19.4299 14.6054 19.4903 14.8041 19.4704 15.0031C19.4505 15.2021 19.3519 15.3849 19.1966 15.5109L12.742 20.7479C12.4591 20.9774 12.0521 20.9705 11.7773 20.7314L5.78367 15.518C5.47266 15.2475 5.43826 14.7767 5.70665 14.4638L7.70451 12.1349C7.88613 11.9232 8.17025 11.8298 8.44207 11.8924L10.3926 12.3416C10.404 12.3442 10.4153 12.3471 10.4265 12.3502C11.8408 12.7461 13.3366 12.7461 14.7508 12.3502L16.5718 11.8418ZM15.1549 13.7948C13.482 14.2629 11.7128 14.2646 10.0393 13.7995L8.54757 13.456L7.33013 14.8751L12.2862 19.186L17.6644 14.8225L16.5054 13.4177L15.1549 13.7948Z" fill="white" fill-opacity="0.7"/>
<path fill-rule="evenodd" clip-rule="evenodd" d="M12.5 4.5845C11.2574 4.5845 10.25 5.59186 10.25 6.8345C10.25 8.07714 11.2574 9.0845 12.5 9.0845C13.7426 9.0845 14.75 8.07714 14.75 6.8345C14.75 5.59186 13.7426 4.5845 12.5 4.5845ZM8.75 6.8345C8.75 4.76344 10.4289 3.0845 12.5 3.0845C14.5711 3.0845 16.25 4.76344 16.25 6.8345C16.25 8.90557 14.5711 10.5845 12.5 10.5845C10.4289 10.5845 8.75 8.90557 8.75 6.8345Z" fill="white" fill-opacity="0.7"/>
</svg>
