<svg width="20" height="18" viewBox="0 0 20 18" fill="none" xmlns="http://www.w3.org/2000/svg">
<path fill-rule="evenodd" clip-rule="evenodd" d="M0.986328 1.18434C1.10922 0.919469 1.37467 0.75 1.66667 0.75H18.3333C18.6253 0.75 18.8908 0.919469 19.0137 1.18434C19.1366 1.44922 19.0946 1.76134 18.906 1.98429L12.4167 9.65794V16.5C12.4167 16.7599 12.2821 17.0013 12.061 17.138C11.8399 17.2746 11.5637 17.2871 11.3313 17.1708L7.99792 15.5042C7.74383 15.3771 7.58333 15.1174 7.58333 14.8333V9.65794L1.09399 1.98429C0.905441 1.76134 0.863434 1.44922 0.986328 1.18434ZM3.28314 2.25L8.90601 8.89904C9.02051 9.03443 9.08333 9.20602 9.08333 9.38333V14.3698L10.9167 15.2865V9.38333C10.9167 9.20602 10.9795 9.03443 11.094 8.89904L16.7169 2.25H3.28314Z" fill="white" fill-opacity="0.7"/>
</svg>
