<svg width="24" height="24" viewBox="0 0 24 24" fill="none" xmlns="http://www.w3.org/2000/svg">
<path fill-rule="evenodd" clip-rule="evenodd" d="M22.7534 11.25H11.1934C11.0043 10.0033 10.3511 8.87408 9.36461 8.08859C8.37816 7.30309 7.13135 6.91933 5.87393 7.01417C4.61652 7.10901 3.44138 7.67546 2.58392 8.60003C1.72645 9.52461 1.25 10.739 1.25 12C1.25 13.261 1.72645 14.4754 2.58392 15.4C3.44138 16.3246 4.61652 16.891 5.87393 16.9858C7.13135 17.0807 8.37816 16.6969 9.36461 15.9114C10.3511 15.1259 11.0043 13.9967 11.1934 12.75H15.5034V14.5C15.5034 14.8315 15.6351 15.1495 15.8695 15.3839C16.104 15.6183 16.4219 15.75 16.7534 15.75H19.7534C20.0849 15.75 20.4029 15.6183 20.6373 15.3839C20.8717 15.1495 21.0034 14.8315 21.0034 14.5V12.75H22.7534C22.9523 12.75 23.1431 12.671 23.2838 12.5303C23.4244 12.3897 23.5034 12.1989 23.5034 12C23.5034 11.8011 23.4244 11.6103 23.2838 11.4697C23.1431 11.329 22.9523 11.25 22.7534 11.25ZM6.25343 15.5C5.5612 15.5 4.88451 15.2947 4.30893 14.9102C3.73336 14.5256 3.28476 13.9789 3.01985 13.3394C2.75494 12.6999 2.68563 11.9961 2.82068 11.3172C2.95573 10.6383 3.28907 10.0146 3.77856 9.52514C4.26804 9.03565 4.89168 8.70231 5.57061 8.56726C6.24955 8.43221 6.95328 8.50152 7.59282 8.76643C8.23236 9.03134 8.77899 9.47994 9.16357 10.0555C9.54816 10.6311 9.75343 11.3078 9.75343 12C9.75343 12.9283 9.38468 13.8185 8.7283 14.4749C8.07193 15.1313 7.18169 15.5 6.25343 15.5ZM19.5034 14.25H17.0034V12.75H19.5034V14.25Z" fill="white" fill-opacity="0.8"/>
</svg>
