<svg width="25" height="24" viewBox="0 0 25 24" fill="none" xmlns="http://www.w3.org/2000/svg">
<path fill-rule="evenodd" clip-rule="evenodd" d="M9.91675 7.83333C9.91675 6.4066 11.0733 5.25 12.5001 5.25C13.9268 5.25 15.0834 6.4066 15.0834 7.83333C15.0834 9.26007 13.9268 10.4167 12.5001 10.4167C11.0733 10.4167 9.91675 9.26007 9.91675 7.83333ZM12.5001 3.75C10.2449 3.75 8.41675 5.57817 8.41675 7.83333C8.41675 10.0885 10.2449 11.9167 12.5001 11.9167C14.7552 11.9167 16.5834 10.0885 16.5834 7.83333C16.5834 5.57817 14.7552 3.75 12.5001 3.75ZM9.16658 13.75C8.08362 13.75 7.04501 14.1802 6.27923 14.946C5.51346 15.7118 5.08325 16.7504 5.08325 17.8333V19.5C5.08325 19.9142 5.41904 20.25 5.83325 20.25C6.24747 20.25 6.58325 19.9142 6.58325 19.5V17.8333C6.58325 17.1482 6.85542 16.4911 7.33989 16.0066C7.82436 15.5222 8.48144 15.25 9.16658 15.25H15.8333C16.5184 15.25 17.1755 15.5222 17.6599 16.0066C18.1444 16.4911 18.4166 17.1482 18.4166 17.8333V19.5C18.4166 19.9142 18.7524 20.25 19.1666 20.25C19.5808 20.25 19.9166 19.9142 19.9166 19.5V17.8333C19.9166 16.7504 19.4864 15.7118 18.7206 14.946C17.9548 14.1802 16.9162 13.75 15.8333 13.75H9.16658Z" fill="#333333"/>
</svg>
