<svg width="25" height="24" viewBox="0 0 25 24" fill="none" xmlns="http://www.w3.org/2000/svg">
<path fill-rule="evenodd" clip-rule="evenodd" d="M19.2999 3.20001H17.0999V2.00001C17.0999 1.60001 16.7999 1.20001 16.2999 1.20001C15.7999 1.20001 15.4999 1.60001 15.4999 2.00001V3.20001H9.09988V2.00001C9.09988 1.60001 8.79988 1.20001 8.29988 1.20001C7.79988 1.20001 7.49988 1.60001 7.49988 2.00001V3.20001H5.29988C3.79988 3.20001 2.49988 4.50001 2.49988 6.00001V10V20C2.49988 21.5 3.69988 22.8 5.29988 22.8H19.2999C20.7999 22.8 22.0999 21.6 22.0999 20V10V6.00001C22.0999 4.50001 20.7999 3.20001 19.2999 3.20001ZM20.4999 20C20.4999 20.7 19.8999 21.2 19.2999 21.2H5.29988C4.59988 21.2 4.09988 20.6 4.09988 20V10.8H20.5999V20H20.4999ZM20.4999 9.20001H4.09988V6.00001C4.09988 5.30001 4.69988 4.80001 5.29988 4.80001H7.49988V6.00001C7.49988 6.40001 7.79988 6.80001 8.29988 6.80001C8.79988 6.80001 9.09988 6.40001 9.09988 6.00001V4.80001H15.5999V6.00001C15.5999 6.40001 15.8999 6.80001 16.3999 6.80001C16.8999 6.80001 17.1999 6.50001 17.1999 6.00001V4.80001H19.2999C19.9999 4.80001 20.4999 5.40001 20.4999 6.00001V9.20001Z" fill="white" fill-opacity="0.7"/>
</svg>
