<svg width="25" height="24" viewBox="0 0 25 24" fill="none" xmlns="http://www.w3.org/2000/svg">
<path fill-rule="evenodd" clip-rule="evenodd" d="M2.75 6C2.75 5.58579 3.08579 5.25 3.5 5.25H19.5C19.9142 5.25 20.25 5.58579 20.25 6C20.25 6.41421 19.9142 6.75 19.5 6.75H3.5C3.08579 6.75 2.75 6.41421 2.75 6ZM4.75 12C4.75 11.5858 5.08579 11.25 5.5 11.25H9.5C9.91421 11.25 10.25 11.5858 10.25 12C10.25 12.4142 9.91421 12.75 9.5 12.75H5.5C5.08579 12.75 4.75 12.4142 4.75 12ZM3.5 17.25C3.08579 17.25 2.75 17.5858 2.75 18C2.75 18.4142 3.08579 18.75 3.5 18.75H19.5C19.9142 18.75 20.25 18.4142 20.25 18C20.25 17.5858 19.9142 17.25 19.5 17.25H3.5Z" fill="white"/>
</svg>
