<svg width="10" height="7" viewBox="0 0 20 14" fill="none" xmlns="http://www.w3.org/2000/svg">
<path fill-rule="evenodd" clip-rule="evenodd" d="M1 0.25C0.585786 0.25 0.25 0.585786 0.25 1C0.25 1.41421 0.585786 1.75 1 1.75H1.01C1.42421 1.75 1.76 1.41421 1.76 1C1.76 0.585786 1.42421 0.25 1.01 0.25H1ZM6 0.25C5.58579 0.25 5.25 0.585786 5.25 1C5.25 1.41421 5.58579 1.75 6 1.75H19C19.4142 1.75 19.75 1.41421 19.75 1C19.75 0.585786 19.4142 0.25 19 0.25H6ZM6 6.25C5.58579 6.25 5.25 6.58579 5.25 7C5.25 7.41421 5.58579 7.75 6 7.75H19C19.4142 7.75 19.75 7.41421 19.75 7C19.75 6.58579 19.4142 6.25 19 6.25H6ZM5.25 13C5.25 12.5858 5.58579 12.25 6 12.25H19C19.4142 12.25 19.75 12.5858 19.75 13C19.75 13.4142 19.4142 13.75 19 13.75H6C5.58579 13.75 5.25 13.4142 5.25 13ZM0.25 7C0.25 6.58579 0.585786 6.25 1 6.25H1.01C1.42421 6.25 1.76 6.58579 1.76 7C1.76 7.41421 1.42421 7.75 1.01 7.75H1C0.585786 7.75 0.25 7.41421 0.25 7ZM1 12.25C0.585786 12.25 0.25 12.5858 0.25 13C0.25 13.4142 0.585786 13.75 1 13.75H1.01C1.42421 13.75 1.76 13.4142 1.76 13C1.76 12.5858 1.42421 12.25 1.01 12.25H1Z" fill="white" fill-opacity="0.7"/>
</svg>
