<svg width="64" height="64" viewBox="0 0 64 64" fill="none" xmlns="http://www.w3.org/2000/svg">
<path fill-rule="evenodd" clip-rule="evenodd" d="M22.7276 7.33337C18.3035 7.33337 14.4051 10.2405 13.1431 14.4808L11.3021 20.6667H8C6.89543 20.6667 6 21.5621 6 22.6667C6 23.7713 6.89543 24.6667 8 24.6667H10.1116L10.083 24.7629C10.0264 24.9528 9.99945 25.1446 9.99935 25.3331C7.57083 27.1576 6 30.062 6 33.3334V44.6667V48.6667V52C6 54.5774 8.08934 56.6667 10.6667 56.6667H13.3333C15.9107 56.6667 18 54.5774 18 52V48.6667H46V52C46 54.5774 48.0893 56.6667 50.6667 56.6667H53.3333C55.9107 56.6667 58 54.5774 58 52V48.6667V44.6667V33.3334C58 30.0619 56.4291 27.1574 54.0004 25.333C54.0003 25.1444 53.9733 24.9528 53.9168 24.7629L53.8882 24.6667H56C57.1046 24.6667 58 23.7713 58 22.6667C58 21.5621 57.1046 20.6667 56 20.6667H52.6977L50.8567 14.4808C49.5946 10.2405 45.6963 7.33337 41.2721 7.33337H22.7276ZM49.3446 23.423L47.0228 15.6219C46.2656 13.0776 43.9266 11.3334 41.2721 11.3334H22.7276C20.0731 11.3334 17.7341 13.0776 16.9769 15.6218L14.6551 23.423C15.095 23.3639 15.5439 23.3334 16 23.3334H48C48.456 23.3334 48.9048 23.3639 49.3446 23.423ZM54 33.3334V44.6667H46H18H10V33.3334C10 30.0197 12.6863 27.3334 16 27.3334H48C51.3137 27.3334 54 30.0197 54 33.3334ZM54 48.6667V52C54 52.3682 53.7015 52.6667 53.3333 52.6667H50.6667C50.2985 52.6667 50 52.3682 50 52V48.6667H54ZM10 48.6667H14V52C14 52.3682 13.7015 52.6667 13.3333 52.6667H10.6667C10.2985 52.6667 10 52.3682 10 52V48.6667ZM24.6667 33.3334C24.6667 32.2288 25.5621 31.3334 26.6667 31.3334H37.3333C38.4379 31.3334 39.3333 32.2288 39.3333 33.3334C39.3333 34.4379 38.4379 35.3334 37.3333 35.3334H26.6667C25.5621 35.3334 24.6667 34.4379 24.6667 33.3334ZM26.6667 36.6667C25.5621 36.6667 24.6667 37.5621 24.6667 38.6667C24.6667 39.7713 25.5621 40.6667 26.6667 40.6667H37.3333C38.4379 40.6667 39.3333 39.7713 39.3333 38.6667C39.3333 37.5621 38.4379 36.6667 37.3333 36.6667H26.6667ZM14 33.3334C14 32.2288 14.8954 31.3334 16 31.3334H18.6667C19.7712 31.3334 20.6667 32.2288 20.6667 33.3334C20.6667 34.4379 19.7712 35.3334 18.6667 35.3334H16C14.8954 35.3334 14 34.4379 14 33.3334ZM45.3333 31.3334C44.2288 31.3334 43.3333 32.2288 43.3333 33.3334C43.3333 34.4379 44.2288 35.3334 45.3333 35.3334H48C49.1046 35.3334 50 34.4379 50 33.3334C50 32.2288 49.1046 31.3334 48 31.3334H45.3333Z" fill="white"/>
</svg>
