<svg width="25" height="24" viewBox="0 0 25 24" fill="none" xmlns="http://www.w3.org/2000/svg">
<path fill-rule="evenodd" clip-rule="evenodd" d="M9.22281 2.75C7.56375 2.75 6.10187 3.84016 5.62861 5.4303L4.93823 7.75H3.69995C3.28574 7.75 2.94995 8.08579 2.94995 8.5C2.94995 8.91421 3.28574 9.25 3.69995 9.25H4.4918L4.48106 9.28606C4.45986 9.3573 4.44974 9.42919 4.44971 9.49991C3.53901 10.1841 2.94995 11.2732 2.94995 12.5V16.75V18.25V19.5C2.94995 20.4665 3.73345 21.25 4.69995 21.25H5.69995C6.66645 21.25 7.44995 20.4665 7.44995 19.5V18.25H17.95V19.5C17.95 20.4665 18.7335 21.25 19.7 21.25H20.7C21.6664 21.25 22.45 20.4665 22.45 19.5V18.25V16.75V12.5C22.45 11.2732 21.8609 10.184 20.9501 9.49984C20.9501 9.42915 20.9399 9.35727 20.9187 9.28606L20.908 9.25H21.7C22.1142 9.25 22.45 8.91421 22.45 8.5C22.45 8.08579 22.1142 7.75 21.7 7.75H20.4616L19.7712 5.4303C19.2979 3.84017 17.8361 2.75 16.177 2.75H9.22281ZM19.2042 8.78361L18.3335 5.85818C18.0496 4.9041 17.1724 4.25 16.177 4.25H9.22281C8.22737 4.25 7.35024 4.9041 7.06629 5.85818L6.19562 8.78362C6.36058 8.76145 6.52893 8.75 6.69995 8.75H18.7C18.8709 8.75 19.0393 8.76144 19.2042 8.78361ZM20.95 12.5V16.75H17.95H7.44995H4.44995V12.5C4.44995 11.2574 5.45731 10.25 6.69995 10.25H18.7C19.9426 10.25 20.95 11.2574 20.95 12.5ZM20.95 18.25V19.5C20.95 19.6381 20.838 19.75 20.7 19.75H19.7C19.5619 19.75 19.45 19.6381 19.45 19.5V18.25H20.95ZM4.44995 18.25H5.94995V19.5C5.94995 19.6381 5.83802 19.75 5.69995 19.75H4.69995C4.56188 19.75 4.44995 19.6381 4.44995 19.5V18.25ZM9.94995 12.5C9.94995 12.0858 10.2857 11.75 10.7 11.75H14.7C15.1142 11.75 15.45 12.0858 15.45 12.5C15.45 12.9142 15.1142 13.25 14.7 13.25H10.7C10.2857 13.25 9.94995 12.9142 9.94995 12.5ZM10.7 13.75C10.2857 13.75 9.94995 14.0858 9.94995 14.5C9.94995 14.9142 10.2857 15.25 10.7 15.25H14.7C15.1142 15.25 15.45 14.9142 15.45 14.5C15.45 14.0858 15.1142 13.75 14.7 13.75H10.7ZM5.94995 12.5C5.94995 12.0858 6.28574 11.75 6.69995 11.75H7.69995C8.11416 11.75 8.44995 12.0858 8.44995 12.5C8.44995 12.9142 8.11416 13.25 7.69995 13.25H6.69995C6.28574 13.25 5.94995 12.9142 5.94995 12.5ZM17.7 11.75C17.2857 11.75 16.95 12.0858 16.95 12.5C16.95 12.9142 17.2857 13.25 17.7 13.25H18.7C19.1142 13.25 19.45 12.9142 19.45 12.5C19.45 12.0858 19.1142 11.75 18.7 11.75H17.7Z" fill="white" fill-opacity="0.7"/>
</svg>
