<svg width="25" height="24" viewBox="0 0 25 24" fill="none" xmlns="http://www.w3.org/2000/svg">
<path fill-rule="evenodd" clip-rule="evenodd" d="M23.6 7.45265C23.6 7.35265 23.5 7.25265 23.5 7.15265C23.5 7.05265 23.4 7.05265 23.3 6.95265L23.2 6.85265L14.2 2.85265C14.1 2.85265 14 2.75265 13.9 2.75265H12.9C12.8458 2.74612 12.7907 2.7517 12.7388 2.76899C12.6869 2.78628 12.6395 2.81485 12.6 2.85265L2.60004 6.85265C2.50004 6.85265 2.50004 6.85265 2.40004 6.95265C2.24213 7.11804 2.1376 7.32709 2.10004 7.55265V20.5527C2.0987 20.6581 2.11847 20.7627 2.1582 20.8604C2.19793 20.958 2.25681 21.0468 2.33136 21.1213C2.40592 21.1959 2.49464 21.2548 2.59231 21.2945C2.68998 21.3342 2.79461 21.354 2.90004 21.3527H22.9C23.0055 21.354 23.1101 21.3342 23.2078 21.2945C23.3054 21.2548 23.3942 21.1959 23.4687 21.1213C23.5433 21.0468 23.6022 20.958 23.6419 20.8604C23.6816 20.7627 23.7014 20.6581 23.7 20.5527V7.55265L23.6 7.45265ZM13 4.25265H13.7L19.3 6.75265H6.80004L13 4.25265ZM9.10004 19.8527H6.70004V17.3527H9.20004V19.8527H9.10004ZM9.10004 15.8527H6.70004V13.3527H9.20004V15.8527H9.10004ZM13.1 19.8527H10.7V17.3527H13.2V19.8527H13.1ZM22.1 19.8527H14.6V16.6527C14.6014 16.5472 14.5816 16.4426 14.5419 16.3449C14.5022 16.2473 14.4433 16.1585 14.3687 16.084C14.2942 16.0094 14.2054 15.9505 14.1078 15.9108C14.0101 15.8711 13.9055 15.8513 13.8 15.8527H10.7V12.6527C10.7014 12.5472 10.6816 12.4426 10.6419 12.3449C10.6022 12.2473 10.5433 12.1585 10.4687 12.084C10.3942 12.0094 10.3054 11.9505 10.2078 11.9108C10.1101 11.8711 10.0055 11.8513 9.90004 11.8527H5.90004C5.79461 11.8513 5.68998 11.8711 5.59231 11.9108C5.49464 11.9505 5.40592 12.0094 5.33136 12.084C5.25681 12.1585 5.19793 12.2473 5.1582 12.3449C5.11847 12.4426 5.0987 12.5472 5.10004 12.6527V19.8527H3.70004V8.25265H22.2V19.8527H22.1Z" fill="white" fill-opacity="0.7"/>
</svg>
