<svg width="25" height="24" viewBox="0 0 25 24" fill="none" xmlns="http://www.w3.org/2000/svg">
<path fill-rule="evenodd" clip-rule="evenodd" d="M9.51648 4.49999C9.51648 4.45397 9.55379 4.41666 9.59981 4.41666H14.5998C14.6458 4.41666 14.6831 4.45397 14.6831 4.49999V6.16666C14.6831 6.21268 14.6458 6.24999 14.5998 6.24999H9.59981C9.55379 6.24999 9.51648 6.21268 9.51648 6.16666V5.35563C9.5167 5.34822 9.5168 5.34079 9.5168 5.33333C9.5168 5.32587 9.5167 5.31843 9.51648 5.31103V4.49999ZM8.01648 4.58333V4.49999C8.01648 3.62554 8.72536 2.91666 9.59981 2.91666H14.5998C15.4743 2.91666 16.1831 3.62554 16.1831 4.49999V4.58333H17.1001C17.7411 4.58333 18.3558 4.83794 18.809 5.29115C19.2622 5.74437 19.5168 6.35905 19.5168 6.99999V18.6667C19.5168 19.3076 19.2622 19.9223 18.809 20.3755C18.3558 20.8287 17.7411 21.0833 17.1001 21.0833H7.10014C6.4592 21.0833 5.84451 20.8287 5.3913 20.3755C4.93808 19.9223 4.68347 19.3076 4.68347 18.6667V6.99999C4.68347 6.35906 4.93808 5.74437 5.3913 5.29115C5.84451 4.83794 6.4592 4.58333 7.10014 4.58333H8.01648ZM8.01648 6.08333H7.10014C6.85702 6.08333 6.62387 6.17991 6.45196 6.35181C6.28005 6.52372 6.18347 6.75688 6.18347 6.99999V18.6667C6.18347 18.9098 6.28005 19.1429 6.45196 19.3148C6.62387 19.4868 6.85702 19.5833 7.10014 19.5833H17.1001C17.3433 19.5833 17.5764 19.4868 17.7483 19.3148C17.9202 19.1429 18.0168 18.9098 18.0168 18.6667V6.99999C18.0168 6.75688 17.9202 6.52372 17.7483 6.35181C17.5764 6.17991 17.3433 6.08333 17.1001 6.08333H16.1831V6.16666C16.1831 7.04111 15.4743 7.74999 14.5998 7.74999H9.59981C8.72536 7.74999 8.01648 7.04111 8.01648 6.16666V6.08333Z" fill="white" fill-opacity="0.7"/>
</svg>
