<svg width="14" height="20" viewBox="0 0 14 20" fill="none" xmlns="http://www.w3.org/2000/svg">
<path fill-rule="evenodd" clip-rule="evenodd" d="M2.83317 2.41663C2.32691 2.41663 1.9165 2.82703 1.9165 3.33329V16.6666C1.9165 17.1729 2.32691 17.5833 2.83317 17.5833H11.1665C11.6728 17.5833 12.0832 17.1729 12.0832 16.6666V3.33329C12.0832 2.82703 11.6728 2.41663 11.1665 2.41663H2.83317ZM0.416504 3.33329C0.416504 1.9986 1.49848 0.916626 2.83317 0.916626H11.1665C12.5012 0.916626 13.5832 1.9986 13.5832 3.33329V16.6666C13.5832 18.0013 12.5012 19.0833 11.1665 19.0833H2.83317C1.49848 19.0833 0.416504 18.0013 0.416504 16.6666V3.33329Z" fill="white" fill-opacity="0.7"/>
</svg>
