<svg width="18" height="17" viewBox="0 0 18 17" fill="none" xmlns="http://www.w3.org/2000/svg">
<path fill-rule="evenodd" clip-rule="evenodd" d="M14.4659 1.91563C14.607 1.77456 14.7983 1.69531 14.9978 1.69531C15.1973 1.69531 15.3886 1.77456 15.5297 1.91563C15.6708 2.0567 15.75 2.24803 15.75 2.44752C15.75 2.64702 15.6708 2.83835 15.5297 2.97942L8.94917 9.55994L7.53079 9.91454L7.88539 8.49615L14.4659 1.91563ZM14.9978 0.195312C14.4005 0.195312 13.8276 0.432598 13.4053 0.85497L6.67783 7.58239C6.58172 7.67851 6.51353 7.79894 6.48056 7.93081L5.77241 10.7634C5.70851 11.019 5.7834 11.2894 5.96969 11.4756C6.15597 11.6619 6.42634 11.7368 6.68192 11.6729L9.51451 10.9648C9.64639 10.9318 9.76682 10.8636 9.86294 10.7675L16.5904 4.04008C17.0127 3.61771 17.25 3.04485 17.25 2.44752C17.25 1.8502 17.0127 1.27734 16.5904 0.85497C16.168 0.432598 15.5951 0.195312 14.9978 0.195312ZM17.25 10.5C17.25 10.0858 16.9142 9.75 16.5 9.75C16.0858 9.75 15.75 10.0858 15.75 10.5V13.8333C15.75 14.0764 15.6534 14.3096 15.4815 14.4815C15.3096 14.6534 15.0764 14.75 14.8333 14.75L3.16667 14.75C2.92355 14.75 2.69039 14.6534 2.51849 14.4815C2.34658 14.3096 2.25 14.0764 2.25 13.8333L2.25 10.5C2.25 10.0858 1.91421 9.75 1.5 9.75C1.08579 9.75 0.75 10.0858 0.75 10.5V13.8333C0.75 14.4743 1.00461 15.089 1.45783 15.5422C1.91104 15.9954 2.52573 16.25 3.16667 16.25H14.8333C15.4743 16.25 16.089 15.9954 16.5422 15.5422C16.9954 15.089 17.25 14.4743 17.25 13.8333V10.5Z" fill="white" fill-opacity="0.4"/>
</svg>
