<svg width="18" height="19" viewBox="0 0 18 19" fill="none" xmlns="http://www.w3.org/2000/svg">
<path fill-rule="evenodd" clip-rule="evenodd" d="M6.62843 0.75C5.89908 0.75 5.19961 1.03973 4.68388 1.55546L1.05546 5.18388C0.539731 5.69961 0.25 6.39908 0.25 7.12843V11.8716C0.25 12.6009 0.539732 13.3004 1.05546 13.8161L4.68388 17.4445C5.19961 17.9603 5.89908 18.25 6.62843 18.25H11.3716C12.1009 18.25 12.8004 17.9603 13.3161 17.4445L16.9445 13.8161C17.4603 13.3004 17.75 12.6009 17.75 11.8716V7.12843C17.75 6.39908 17.4603 5.69961 16.9445 5.18388L13.3161 1.55546C12.8004 1.03973 12.1009 0.75 11.3716 0.75H6.62843ZM5.74454 2.61612C5.97896 2.3817 6.29691 2.25 6.62843 2.25H11.3716C11.7031 2.25 12.021 2.3817 12.2555 2.61612L15.8839 6.24454C16.1183 6.47896 16.25 6.79691 16.25 7.12843V11.8716C16.25 12.2031 16.1183 12.521 15.8839 12.7555L12.2555 16.3839C12.021 16.6183 11.7031 16.75 11.3716 16.75H6.62843C6.29691 16.75 5.97896 16.6183 5.74454 16.3839L2.11612 12.7555C1.8817 12.521 1.75 12.2031 1.75 11.8716V7.12843C1.75 6.79691 1.8817 6.47896 2.11612 6.24454L5.74454 2.61612ZM9.87493 6.13924C9.33348 5.82663 8.66638 5.82663 8.12493 6.13924L6.52686 7.06189C5.9854 7.3745 5.65186 7.95222 5.65186 8.57743V10.4227C5.65186 11.0479 5.9854 11.6257 6.52686 11.9383L8.12493 12.8609C8.66638 13.1735 9.33348 13.1735 9.87493 12.8609L11.473 11.9383C12.0145 11.6257 12.348 11.0479 12.348 10.4227V8.57744C12.348 7.95222 12.0145 7.3745 11.473 7.06189L9.87493 6.13924ZM8.87493 7.43828C8.95228 7.39362 9.04758 7.39362 9.12493 7.43828L10.723 8.36093C10.8004 8.40559 10.848 8.48812 10.848 8.57744V10.4227C10.848 10.5121 10.8004 10.5946 10.723 10.6392L9.12493 11.5619C9.04758 11.6065 8.95228 11.6065 8.87493 11.5619L7.27686 10.6392C7.19951 10.5946 7.15186 10.5121 7.15186 10.4227V8.57743C7.15186 8.48812 7.1995 8.40559 7.27686 8.36093L8.87493 7.43828Z" fill="white" fill-opacity="0.7"/>
</svg>
