<svg width="17" height="20" viewBox="0 0 17 20" fill="none" xmlns="http://www.w3.org/2000/svg">
<path fill-rule="evenodd" clip-rule="evenodd" d="M0.25 1.5C0.25 1.08579 0.585786 0.75 1 0.75H10C10.4142 0.75 10.75 1.08579 10.75 1.5C10.75 1.91421 10.4142 2.25 10 2.25H1.75V17.75H10C10.4142 17.75 10.75 18.0858 10.75 18.5C10.75 18.9142 10.4142 19.25 10 19.25H1C0.585786 19.25 0.25 18.9142 0.25 18.5V1.5ZM11.6364 13.6968C11.3435 13.4039 11.3435 12.9291 11.6364 12.6362L13.6891 10.5835H8C7.58579 10.5835 7.25 10.2477 7.25 9.8335C7.25 9.41928 7.58579 9.0835 8 9.0835H13.6897L11.6364 7.03017C11.3435 6.73727 11.3435 6.2624 11.6364 5.96951C11.9293 5.67661 12.4042 5.67661 12.6971 5.96951L16.0304 9.30284C16.1023 9.37476 16.1581 9.45979 16.1955 9.55231C16.2118 9.59266 16.2246 9.63444 16.2337 9.67717L16.2355 9.68617C16.2451 9.73422 16.2501 9.78344 16.2501 9.83317C16.2501 9.85708 16.2489 9.88088 16.2467 9.90448C16.2294 10.0889 16.1453 10.2539 16.0188 10.3751L12.6971 13.6968C12.4042 13.9897 11.9293 13.9897 11.6364 13.6968ZM4.5 9.25C4.08579 9.25 3.75 9.58579 3.75 10C3.75 10.4142 4.08579 10.75 4.5 10.75C4.91421 10.75 5.25 10.4142 5.25 10C5.25 9.58579 4.91421 9.25 4.5 9.25Z" fill="white" fill-opacity="0.7"/>
</svg>
