<svg width="18" height="17" viewBox="0 0 18 17" fill="none" xmlns="http://www.w3.org/2000/svg">
<path d="M16.4999 9.15833C16.3688 10.5768 15.8365 11.9287 14.9651 13.0557C14.0938 14.1826 12.9195 15.0382 11.5797 15.5221C10.2398 16.0061 8.78991 16.0984 7.3995 15.7884C6.0091 15.4784 4.73575 14.7788 3.72844 13.7715C2.72113 12.7642 2.02153 11.4908 1.71151 10.1004C1.40148 8.71001 1.49385 7.26007 1.9778 5.92025C2.46175 4.58042 3.31728 3.40614 4.44426 2.53479C5.57125 1.66345 6.92308 1.13109 8.34159 1C7.5111 2.12356 7.11146 3.50787 7.21536 4.90118C7.31926 6.29448 7.9198 7.60422 8.90775 8.59217C9.8957 9.58012 11.2054 10.1807 12.5987 10.2846C13.992 10.3885 15.3764 9.98882 16.4999 9.15833Z" stroke="white" stroke-opacity="0.8" stroke-width="1.5" stroke-linecap="round" stroke-linejoin="round"/>
</svg>
